# xmcd CD database file generated by OrangeCD 6.3
#
# Track frame offsets:
#	150
#	23210
#	51676
#	69470
#	88069
#	106609
#	138080
#	154863
#	173350
#	188595
#	205729
#	222941
#	247486
#	264745
#	289757
#	306891
#	330803
#
# Disc length: 4651 seconds
#
# Revision: 2
# Processed by: cddbd v1.5.2PL0 Copyright (c) Steve Scherf et al.
# Submitted via: OrangeCD 6.3
#
DISCID=f1122911
DTITLE=Bonnie Raitt - Bonnie Raitt Compilation
DYEAR=1900
DGENRE=Blues
TTITLE0=Hear me Lord
TTITLE1=Silver lining
TTITLE2=Runaway
TTITLE3=Right place wrong time
TTITLE4=Nothing seems to matter
TTITLE5=Low down dirty blues
TTITLE6=Love sneakin' up on you
TTITLE7=Love letter
TTITLE8=Love in the nick of time
TTITLE9=Love has no pride
TTITLE10=Let's give them something to talk about
TTITLE11=It's all over now baby blue
TTITLE12=I know
TTITLE13=I can't make you love me
TTITLE14=Love has no pride
TTITLE15=Angel from Montgomery
TTITLE16=Baby I love you
EXTD=
EXTT0=
EXTT1=
EXTT2=
EXTT3=
EXTT4=
EXTT5=
EXTT6=
EXTT7=
EXTT8=
EXTT9=
EXTT10=
EXTT11=
EXTT12=
EXTT13=
EXTT14=
EXTT15=
EXTT16=
PLAYORDER=
